<?xml version="1.0" encoding="iso-8859-1"?>
<!-- Generator: Adobe Illustrator 19.0.0, SVG Export Plug-In . SVG Version: 6.00 Build 0)  -->
<svg version="1.1" id="Capa_1" xmlns="http://www.w3.org/2000/svg" xmlns:xlink="http://www.w3.org/1999/xlink" x="0px" y="0px"
	 viewBox="0 0 512 512" style="enable-background:new 0 0 512 512;" xml:space="preserve">
<g>
	<g>
		<path d="M256,386c-5.52,0-10,4.48-10,10c0,5.52,4.48,10,10,10s10-4.48,10-10C266,390.48,261.52,386,256,386z"/>
	</g>
</g>
<g>
	<g>
		<path d="M502,452h-36V296c0-16.542-13.458-30-30-30h-30v-90c0-16.542-13.458-30-30-30h-10V90c0-7.678-2.902-14.688-7.663-20
			C363.098,64.688,366,57.678,366,50c0-8.533-2.502-16.789-7.229-23.866l-14.45-21.68C342.467,1.671,339.344,0,336,0
			s-6.467,1.671-8.321,4.454l-14.444,21.672C308.502,33.211,306,41.467,306,50c0,7.678,2.902,14.688,7.663,20
			C308.902,75.312,306,82.322,306,90v56h-20V90c0-7.678-2.902-14.688-7.663-20C283.098,64.688,286,57.678,286,50
			c0-8.533-2.502-16.789-7.229-23.866l-14.45-21.68C262.467,1.671,259.344,0,256,0s-6.467,1.671-8.321,4.454l-14.445,21.672
			C228.501,33.212,226,41.468,226,50c0,7.678,2.902,14.688,7.663,20C228.902,75.312,226,82.322,226,90v56h-20V90
			c0-7.678-2.902-14.688-7.663-20C203.098,64.688,206,57.678,206,50c0-8.532-2.501-16.788-7.229-23.866l-14.45-21.68
			C182.466,1.671,179.344,0,176,0s-6.466,1.671-8.321,4.454l-14.445,21.672C148.501,33.212,146,41.468,146,50
			c0,7.678,2.902,14.688,7.663,20C148.902,75.312,146,82.322,146,90v56h-10c-16.542,0-30,13.458-30,30v90H76
			c-16.542,0-30,13.458-30,30v156H10c-5.523,0-10,4.477-10,10c0,27.57,22.43,50,50,50h412c13.35,0,25.904-5.203,35.352-14.649
			C506.798,487.904,512,475.349,512,462C512,456.477,507.522,452,502,452z M329.871,37.226L336,28.031l6.135,9.204
			C344.663,41.021,346,45.435,346,50c0,5.514-4.486,10-10,10c-5.514,0-10-4.486-10-10C326,45.435,327.337,41.021,329.871,37.226z
			 M326,90c0-5.514,4.486-10,10-10c5.514,0,10,4.486,10,10v56h-20V90z M249.871,37.226L256,28.031l6.135,9.204
			C264.663,41.021,266,45.435,266,50c0,5.514-4.486,10-10,10c-5.514,0-10-4.486-10-10C246,45.435,247.337,41.021,249.871,37.226z
			 M246,90c0-5.514,4.486-10,10-10c5.514,0,10,4.486,10,10v56h-20V90z M169.871,37.226L176,28.031l6.134,9.203
			C184.663,41.021,186,45.435,186,50c0,5.514-4.486,10-10,10c-5.514,0-10-4.486-10-10C166,45.435,167.337,41.021,169.871,37.226z
			 M166,90c0-5.514,4.486-10,10-10c5.514,0,10,4.486,10,10v56h-20V90z M126,176c0-5.514,4.486-10,10-10c11.405,0,192.912,0,240,0
			c5.514,0,10,4.486,10,10v13.609c-5.752,1.815-10.97,5.172-15.028,9.809c-2.551,2.918-6.093,4.525-9.972,4.525
			c-3.879,0-7.421-1.607-9.972-4.525c-6.313-7.219-15.436-11.36-25.028-11.36c-9.592,0-18.716,4.141-25.028,11.36
			c-2.551,2.918-6.093,4.525-9.972,4.525c-3.879,0-7.421-1.607-9.972-4.525c-6.313-7.219-15.436-11.36-25.028-11.36
			c-9.592,0-18.715,4.141-25.028,11.36c-2.552,2.918-6.093,4.525-9.972,4.525c-3.879,0-7.42-1.607-9.972-4.525
			c-6.313-7.219-15.435-11.36-25.028-11.36s-18.715,4.141-25.028,11.36c-2.552,2.918-6.093,4.525-9.972,4.525
			c-3.879,0-7.42-1.607-9.975-4.528c-4.056-4.635-9.273-7.991-15.025-9.805V176z M126,212.613c6.312,7.2,15.421,11.33,25,11.33
			c9.593,0,18.715-4.141,25.028-11.36c2.552-2.918,6.093-4.525,9.972-4.525c3.879,0,7.42,1.607,9.972,4.525
			c6.313,7.219,15.435,11.36,25.028,11.36s18.715-4.141,25.028-11.36c2.551-2.918,6.093-4.525,9.972-4.525
			c3.879,0,7.421,1.607,9.972,4.525c6.313,7.219,15.436,11.36,25.028,11.36c9.592,0,18.716-4.141,25.028-11.36
			c2.551-2.918,6.093-4.525,9.972-4.525c3.879,0,7.421,1.607,9.972,4.525c6.313,7.219,15.436,11.36,25.028,11.36
			c9.58,0,18.691-4.13,25-11.329V266H126V212.613z M65.999,296C66,290.486,70.486,286,76,286h360c5.514,0,10,4.486,10,10v13.609
			c-5.752,1.815-10.97,5.172-15.028,9.809c-2.551,2.918-6.093,4.525-9.972,4.525c-3.879,0-7.421-1.607-9.978-4.531
			c-7.33-8.37-18.291-12.513-29.33-11.078c-8.007,1.04-15.362,4.973-20.721,11.084c-2.551,2.918-6.093,4.525-9.972,4.525
			c-3.879,0-7.421-1.607-9.972-4.525c-6.313-7.219-15.436-11.36-25.028-11.36c-9.592,0-18.716,4.141-25.028,11.36
			c-2.551,2.918-6.093,4.525-9.972,4.525c-3.879,0-7.421-1.607-9.972-4.525c-6.313-7.219-15.436-11.36-25.028-11.36
			c-9.592,0-18.715,4.141-25.028,11.36c-2.552,2.918-6.093,4.525-9.972,4.525c-3.879,0-7.42-1.607-9.972-4.525
			c-6.313-7.219-15.435-11.36-25.028-11.36c-9.593,0-18.715,4.141-25.028,11.36c-2.552,2.918-6.093,4.525-9.972,4.525
			c-3.879,0-7.42-1.607-9.972-4.525c-6.313-7.219-15.435-11.36-25.028-11.36c-9.593,0-18.715,4.141-25.025,11.357
			c-3.799,4.342-9.89,5.602-14.975,3.544V296z M296,406h150v46H66v-46h150c5.523,0,10-4.477,10-10s-4.477-10-10-10H66v-42.477
			c10.859,1.613,22.326-2.138,30.028-10.941c2.552-2.918,6.093-4.525,9.972-4.525c3.879,0,7.42,1.607,9.972,4.525
			c6.313,7.219,15.435,11.36,25.028,11.36s18.715-4.141,25.028-11.36c2.552-2.918,6.093-4.525,9.972-4.525
			c3.879,0,7.42,1.607,9.972,4.525c6.313,7.219,15.435,11.36,25.028,11.36s18.715-4.141,25.028-11.36
			c2.552-2.918,6.093-4.525,9.972-4.525c3.879,0,7.421,1.607,9.972,4.525c6.313,7.219,15.436,11.36,25.028,11.36
			c9.592,0,18.716-4.141,25.028-11.36c2.551-2.918,6.093-4.525,9.972-4.525c3.879,0,7.421,1.607,9.972,4.525
			c6.313,7.219,15.436,11.36,25.028,11.36c9.592,0,18.716-4.141,25.02-11.35c2.743-3.128,6-4.133,8.249-4.426
			c4.405-0.57,8.782,1.081,11.703,4.416c6.313,7.219,15.436,11.36,25.028,11.36c9.58,0,18.691-4.13,25-11.329V386H296
			c-5.522,0-10,4.477-10,10S290.478,406,296,406z M483.209,483.208C477.54,488.878,470.008,492,462,492H50
			c-13.038,0-24.159-8.359-28.287-20h468.585C488.827,476.168,486.429,479.989,483.209,483.208z"/>
	</g>
</g>
<g>
</g>
<g>
</g>
<g>
</g>
<g>
</g>
<g>
</g>
<g>
</g>
<g>
</g>
<g>
</g>
<g>
</g>
<g>
</g>
<g>
</g>
<g>
</g>
<g>
</g>
<g>
</g>
<g>
</g>
</svg>
