<?xml version="1.0" encoding="iso-8859-1"?>
<!-- Generator: Adobe Illustrator 18.0.0, SVG Export Plug-In . SVG Version: 6.00 Build 0)  -->
<!DOCTYPE svg PUBLIC "-//W3C//DTD SVG 1.1//EN" "http://www.w3.org/Graphics/SVG/1.1/DTD/svg11.dtd">
<svg version="1.1" id="Capa_1" xmlns="http://www.w3.org/2000/svg" xmlns:xlink="http://www.w3.org/1999/xlink" x="0px" y="0px"
	 viewBox="0 0 444.991 444.991" style="enable-background:new 0 0 444.991 444.991;" xml:space="preserve">
<g>
	<path d="M444.983,184.601c-0.058-22.603-23.861-43.377-67.046-58.503c-41.597-14.569-96.801-22.593-155.443-22.593
		s-113.847,8.023-155.443,22.593C23.812,141.242,0,162.048,0,184.683c0,0.041,0.005,0.477,0.006,0.654
		c0.239,41.985,23.596,81.308,65.835,110.789c41.91,29.251,97.542,45.36,156.649,45.36c59.108,0,114.743-16.109,156.655-45.36
		c42.461-29.635,65.846-69.211,65.846-111.44C444.991,184.656,444.983,184.63,444.983,184.601z M70.355,135.536
		c40.562-14.207,94.592-22.031,152.138-22.031s111.576,7.824,152.138,22.031c38.356,13.435,60.354,31.348,60.354,49.146
		c0,1.796-0.235,3.593-0.677,5.387c-7.617-16.993-28.84-32.366-61.633-44.264c-40.192-14.582-93.529-22.612-150.185-22.612
		c-56.651,0-109.986,8.03-150.18,22.612c-32.791,11.896-54.015,27.266-61.635,44.257c-0.433-1.76-0.674-5.347-0.674-5.377
		c0-0.005-0.001-0.01-0.001-0.015C10.01,166.876,32.008,148.968,70.355,135.536z M427.413,202.896
		c-9.489,11.375-27.614,22.119-52.782,30.935c-40.562,14.206-94.592,22.03-152.138,22.03s-111.577-7.824-152.138-22.03
		c-25.173-8.817-43.3-19.563-52.788-30.94c1.139-17.333,22.186-34.635,58.153-47.684c39.128-14.195,91.252-22.013,146.77-22.013
		c55.522,0,107.647,7.817,146.773,22.013C405.232,168.256,426.279,185.561,427.413,202.896z M222.49,331.486
		c-102.672,0-188.566-50.571-208.247-117.551c11.307,11.054,29.138,21.042,52.806,29.333
		c41.596,14.569,96.801,22.593,155.443,22.593s113.847-8.023,155.443-22.593c23.675-8.292,41.509-18.285,52.816-29.342
		C411.076,280.911,325.175,331.486,222.49,331.486z"/>
	<path d="M267.23,143.317l-3.362-5.603c-0.69-1.15-1.813-1.976-3.118-2.289c-1.308-0.314-2.681-0.091-3.819,0.621l-9.652,6.033
		c-8.256-0.355-16.584-0.542-24.787-0.542c-46.742,0-90.751,5.604-123.921,15.778c-35.496,10.889-54.259,25.534-54.259,42.352
		c0,6.913,3.24,13.541,9.63,19.7c0.97,0.936,2.22,1.4,3.469,1.4c1.311,0,2.619-0.512,3.601-1.53c1.917-1.987,1.858-5.153-0.13-7.069
		c-4.359-4.202-6.569-8.408-6.569-12.501c0-11.468,17.642-23.727,47.191-32.791c32.245-9.892,75.213-15.339,120.988-15.339
		c3.154,0,6.33,0.036,9.51,0.09l-31.071,19.419c-1.891,1.183-2.771,3.475-2.156,5.618c0.615,2.145,2.576,3.622,4.807,3.622h77
		c0.008,0,0.016,0,0.02,0c2.762,0,5-2.238,5-5c0-1.091-0.349-2.101-0.942-2.922l-11.071-18.452
		c76.129,7.213,117.084,28.555,117.084,45.754c0,4.093-2.21,8.299-6.569,12.501c-1.988,1.916-2.047,5.082-0.13,7.069
		c0.981,1.019,2.29,1.53,3.601,1.53c1.248,0,2.499-0.465,3.469-1.4c6.39-6.159,9.63-12.787,9.63-19.7
		C400.671,168.141,334.08,148.752,267.23,143.317z M250.281,151.996l-6.271,18.292h-22.995L250.281,151.996z M254.581,170.287
		l6.243-18.209l10.926,18.209H254.581z"/>
	<path d="M346.231,182.187c-2.333-1.483-5.422-0.79-6.9,1.541c-1.48,2.331-0.79,5.421,1.541,6.9c2.954,1.876,3.619,3.232,3.619,3.56
		c0,1.384-5.633,7.689-33.188,13.26c-23.667,4.785-55.208,7.42-88.812,7.42c-25.396,0-49.729-1.513-70.535-4.373l-14.55-15.599
		c-0.004-0.004-0.01-0.005-0.014-0.01c-0.438-0.466-0.965-0.854-1.564-1.128c-1.531-0.699-3.31-0.582-4.736,0.313l-14.458,9.073
		c-13.328-4.255-16.143-8.115-16.143-8.956c0-0.327,0.665-1.684,3.62-3.559c2.331-1.48,3.021-4.569,1.542-6.901
		c-1.479-2.331-4.569-3.023-6.901-1.542c-5.481,3.479-8.261,7.518-8.261,12.002c0,6.114,5.09,11.277,15.445,15.669l-15.086,9.467
		c-1.64,1.029-2.538,2.913-2.306,4.835c0.232,1.923,1.554,3.538,3.392,4.146l46.524,15.411c0.515,0.171,1.045,0.254,1.571,0.254
		c0.01,0,0.02,0,0.029,0c0.594-0.001,1.899-0.382,1.899-0.382c0.019-0.008,0.039-0.013,0.058-0.021l23.292-8.588
		c1.571-0.579,2.748-1.906,3.135-3.535c0.388-1.628-0.066-3.343-1.208-4.566l-4.678-5.016c18.369,1.972,38.803,3.006,59.932,3.006
		c34.249,0,66.493-2.705,90.793-7.618c27.729-5.605,41.207-13.149,41.207-23.062C354.491,189.703,351.712,185.666,346.231,182.187z
		 M105.159,222.15l24.811-15.569l3.873,25.071L105.159,222.15z M144.041,232.163l-2.869-18.571l13.624,14.606L144.041,232.163z"/>
	<path d="M140.118,194.212c22.867,3.657,50.38,5.59,79.563,5.59s56.696-1.933,79.563-5.59c2.727-0.437,4.583-3,4.147-5.728
		c-0.436-2.726-2.988-4.588-5.728-4.147c-22.353,3.575-49.319,5.465-77.983,5.465s-55.631-1.89-77.983-5.465
		c-2.723-0.438-5.291,1.422-5.728,4.147C135.535,191.212,137.392,193.775,140.118,194.212z"/>
</g>
<g>
</g>
<g>
</g>
<g>
</g>
<g>
</g>
<g>
</g>
<g>
</g>
<g>
</g>
<g>
</g>
<g>
</g>
<g>
</g>
<g>
</g>
<g>
</g>
<g>
</g>
<g>
</g>
<g>
</g>
</svg>
